<svg width="291" height="256" viewBox="0 0 291 256" fill="none" xmlns="http://www.w3.org/2000/svg">
<g clip-path="url(#clip0_108_5637)">
<path d="M239.179 130.999C239.008 129.905 237.979 129.158 236.876 129.329C235.777 129.499 235.026 130.526 235.197 131.619C235.485 133.487 235.854 139.336 233.826 141.687C233.386 142.197 232.857 142.501 232.19 142.624L232.374 131.486C232.401 129.869 231.09 128.542 229.461 128.542C227.825 128.542 226.507 129.882 226.547 131.509L227.074 152.648C226.376 152.535 225.823 152.231 225.371 151.704C223.342 149.35 223.711 143.504 223.999 141.637C224.17 140.543 223.419 139.519 222.32 139.346C221.217 139.176 220.191 139.923 220.017 141.017C219.872 141.937 218.706 150.124 222.306 154.309C223.543 155.746 225.22 156.563 227.174 156.69L227.402 165.89H231.801L232.119 146.669C234.03 146.522 235.669 145.709 236.886 144.295C240.49 140.11 239.324 131.92 239.179 130.999Z" fill="#BDBDBD"/>
<path d="M51.4416 148.92C51.331 148.223 50.6773 147.746 49.9733 147.856C49.2726 147.966 48.7932 148.62 48.9038 149.317C49.0882 150.507 49.3229 154.235 48.0288 155.736C47.7472 156.059 47.412 156.256 46.9862 156.333L47.1035 149.233C47.1203 148.203 46.2855 147.356 45.2463 147.356C44.2036 147.356 43.3655 148.21 43.389 149.25L43.7242 162.726C43.2783 162.655 42.9263 162.459 42.638 162.122C41.344 160.621 41.5786 156.893 41.763 155.703C41.8737 155.006 41.3943 154.352 40.6936 154.242C39.9929 154.132 39.3358 154.609 39.2252 155.306C39.1313 155.893 38.3904 161.112 40.6835 163.779C41.4714 164.696 42.5408 165.217 43.7879 165.297L43.9354 171.162H46.7381L46.9426 158.907C48.1629 158.814 49.2055 158.297 49.98 157.393C52.2764 154.726 51.5355 149.507 51.4416 148.92Z" fill="#BDBDBD"/>
<path d="M145.498 256C65.4175 256 0.5 233.14 0.5 204.939C0.5 176.74 65.4175 153.877 145.498 153.877C225.579 153.877 290.497 176.737 290.497 204.939C290.5 233.14 225.582 256 145.498 256Z" fill="url(#paint0_linear_108_5637)"/>
<path d="M150.289 121.785C150.051 121.435 149.575 121.342 149.223 121.579C148.871 121.816 148.777 122.289 149.015 122.639C149.417 123.236 150.494 125.197 150.175 126.337C150.105 126.584 149.974 126.774 149.763 126.924L148.019 123.049C147.765 122.486 147.098 122.239 146.538 122.499C145.971 122.763 145.736 123.436 146.015 123.993L149.625 131.209C149.367 131.283 149.126 131.266 148.884 131.156C147.802 130.669 146.98 128.592 146.779 127.898C146.662 127.491 146.236 127.261 145.827 127.378C145.418 127.495 145.187 127.918 145.304 128.325C145.404 128.665 146.33 131.68 148.251 132.547C148.911 132.843 149.622 132.857 150.319 132.587L151.892 135.728L153.41 135.021L150.403 128.332C151.04 127.975 151.472 127.431 151.664 126.748C152.22 124.72 150.49 122.079 150.289 121.785Z" fill="#BDBDBD"/>
<path d="M121.547 140.016C121.547 140.533 121.128 140.95 120.609 140.95C120.089 140.95 119.67 140.533 119.67 140.016C119.67 139.499 120.089 139.083 120.609 139.083C121.125 139.086 121.547 139.503 121.547 140.016Z" fill="#BDBDBD"/>
<path d="M165.103 123.483C165.103 123.873 164.785 124.19 164.392 124.19C164 124.19 163.682 123.873 163.682 123.483C163.682 123.093 164 122.776 164.392 122.776C164.785 122.776 165.103 123.093 165.103 123.483Z" fill="#BDBDBD"/>
<path d="M144.916 89.0474L53.4297 187.835L185.913 189.119L179.983 100.809L144.916 89.0474Z" fill="url(#paint1_linear_108_5637)"/>
<path d="M182.877 113.972C183.199 114.079 183.545 114.122 183.903 114.082C185.204 113.932 186.136 112.765 185.985 111.471L184.688 100.273C184.537 98.9791 183.36 98.0554 182.063 98.1988C180.762 98.3488 179.83 99.516 179.981 100.81L181.278 112.008C181.389 112.945 182.036 113.689 182.877 113.972Z" fill="url(#paint2_linear_108_5637)"/>
<path d="M183.902 116.5C186.567 116.5 188.727 114.352 188.727 111.702C188.727 109.051 186.567 106.903 183.902 106.903C181.238 106.903 179.078 109.051 179.078 111.702C179.078 114.352 181.238 116.5 183.902 116.5Z" fill="#FFD700"/>
<path d="M134.599 97.7786C134.277 97.6719 133.976 97.4951 133.718 97.2484C132.772 96.3447 132.742 94.854 133.65 93.9137L141.499 85.7836C142.407 84.8433 143.906 84.8166 144.848 85.7136C145.793 86.6173 145.823 88.1079 144.915 89.0483L137.067 97.1783C136.41 97.8586 135.444 98.062 134.599 97.7786Z" fill="url(#paint3_linear_108_5637)"/>
<path d="M135.168 100.156C137.832 100.156 139.992 98.008 139.992 95.3578C139.992 92.7075 137.832 90.5591 135.168 90.5591C132.504 90.5591 130.344 92.7075 130.344 95.3578C130.344 98.008 132.504 100.156 135.168 100.156Z" fill="#FFD700"/>
<path d="M163.909 92.8473C153.355 89.3092 143.713 85.5043 135.805 81.8794C140.532 89.4192 149.456 96.2454 160.804 100.05C172.055 103.825 183.222 103.805 191.553 100.734C183.366 98.8664 173.889 96.1953 163.909 92.8473Z" fill="url(#paint4_linear_108_5637)"/>
<path d="M218.16 101.636C216.578 106.302 191.987 102.263 163.23 92.6192C134.472 82.9752 112.446 71.3771 114.025 66.7119C115.608 62.0466 140.198 66.0849 168.956 75.7289C197.713 85.3729 219.742 96.9743 218.16 101.636Z" fill="url(#paint5_linear_108_5637)"/>
<path opacity="0.2" d="M163.877 90.7191C137.105 81.7387 116.168 71.0677 114.683 65.8755C114.361 66.1156 114.14 66.3957 114.029 66.7159C112.447 71.3811 134.476 82.9792 163.234 92.6232C191.991 102.267 216.582 106.306 218.164 101.64C218.275 101.32 218.265 100.963 218.158 100.58C213.809 103.815 190.65 99.6961 163.877 90.7191Z" fill="white"/>
<path d="M168.073 80.4645C181.419 84.9396 194.407 86.7237 194.407 86.7237C196.824 73.3749 189.147 59.926 175.838 55.4608C162.488 50.9856 148.143 57.1182 141.971 69.2765C141.971 69.2765 154.727 75.9893 168.073 80.4645Z" fill="url(#paint6_linear_108_5637)"/>
</g>
<defs>
<linearGradient id="paint0_linear_108_5637" x1="145.5" y1="130.738" x2="145.5" y2="210.918" gradientUnits="userSpaceOnUse">
<stop stop-color="#E5E5E5"/>
<stop offset="0.4764" stop-color="#F4F4F4"/>
<stop offset="1" stop-color="white"/>
</linearGradient>
<linearGradient id="paint1_linear_108_5637" x1="126.948" y1="49.8534" x2="118.778" y2="207.158" gradientUnits="userSpaceOnUse">
<stop offset="0.00134342" stop-color="#056FEC"/>
<stop offset="0.8305" stop-color="#68ADFF" stop-opacity="0.15"/>
</linearGradient>
<linearGradient id="paint2_linear_108_5637" x1="182.422" y1="117.869" x2="187.511" y2="115.727" gradientUnits="userSpaceOnUse">
<stop stop-color="#FF7F1C"/>
<stop offset="1" stop-color="#FF7F1C"/>
</linearGradient>
<linearGradient id="paint3_linear_108_5637" x1="138.113" y1="100.947" x2="143.837" y2="94.723" gradientUnits="userSpaceOnUse">
<stop stop-color="#FF7F1C"/>
<stop offset="1" stop-color="#FF7F1C"/>
</linearGradient>
<linearGradient id="paint4_linear_108_5637" x1="164.668" y1="87.8011" x2="157.777" y2="112.515" gradientUnits="userSpaceOnUse">
<stop stop-color="#FF7F1C"/>
<stop offset="1" stop-color="#FFD700"/>
</linearGradient>
<linearGradient id="paint5_linear_108_5637" x1="156.401" y1="112.775" x2="166.865" y2="81.5738" gradientUnits="userSpaceOnUse">
<stop stop-color="#FF7F1C"/>
<stop offset="1" stop-color="#FF9543"/>
</linearGradient>
<linearGradient id="paint6_linear_108_5637" x1="168.41" y1="53.9986" x2="168.41" y2="86.7237" gradientUnits="userSpaceOnUse">
<stop stop-color="#056FEC"/>
<stop offset="1" stop-color="#056FEC" stop-opacity="0.41"/>
</linearGradient>
<clipPath id="clip0_108_5637">
<rect width="290" height="202" fill="white" transform="translate(0.5 54.0005)"/>
</clipPath>
</defs>
</svg>
